<?xml version="1.0" encoding="utf-8"?>
<!-- Generator: Adobe Illustrator 24.3.0, SVG Export Plug-In . SVG Version: 6.00 Build 0)  -->
<svg version="1.0" id="katman_1" xmlns="http://www.w3.org/2000/svg" xmlns:xlink="http://www.w3.org/1999/xlink" x="0px" y="0px"
	 viewBox="0 0 841.89 595.28" style="enable-background:new 0 0 841.89 595.28;" xml:space="preserve">
<style type="text/css">
	.st0{clip-path:url(#SVGID_2_);}
	.st1{fill:#FFFFFF;}
</style>
<g>
	<defs>
		<rect id="SVGID_1_" x="75.98" y="222.08" width="688.02" height="151.38"/>
	</defs>
	<clipPath id="SVGID_2_">
		<use xlink:href="#SVGID_1_"  style="overflow:visible;"/>
	</clipPath>
	<g class="st0">
		<path d="M705.15,275.76h3.82l1.34-3.72h-5.17v-3.43h6.42l1.34-3.72h-13.04v17.01h5.27V275.76z"/>
		<path d="M719.83,264.89h-5.29v17.01h5.29V264.89z"/>
		<path d="M728.75,275.76h3.8l1.34-3.72h-5.15v-3.43h6.4l1.34-3.72h-13.04v17.01h5.29V275.76z"/>
		<path d="M738.97,281.9l0.65-2.27h5.98l0.69,2.27h5.33l-6.19-17.01h-5.48l-6.2,17.01H738.97z M742.63,269.29l2.1,7.09h-4.2
			L742.63,269.29z"/>
		<path d="M749.79,269.24c0.23,0.23,0.5,0.42,0.8,0.55c0.32,0.14,0.66,0.22,1.01,0.21c0.34,0,0.68-0.07,0.98-0.21
			c0.6-0.26,1.08-0.74,1.35-1.35c0.14-0.31,0.21-0.65,0.21-0.99c0-0.35-0.06-0.69-0.21-1.01c-0.13-0.3-0.32-0.57-0.55-0.8
			c-0.23-0.24-0.5-0.42-0.8-0.55c-0.31-0.14-0.65-0.21-1-0.21c-0.34,0-0.68,0.07-1,0.21c-0.6,0.26-1.08,0.74-1.34,1.35
			c-0.14,0.32-0.21,0.66-0.21,1.01c0,0.34,0.06,0.68,0.21,0.99C749.37,268.75,749.55,269.02,749.79,269.24L749.79,269.24z
			 M749.79,266.64c0.09-0.25,0.24-0.48,0.42-0.67c0.18-0.18,0.38-0.32,0.61-0.42c0.24-0.1,0.5-0.15,0.76-0.15
			c0.25,0,0.5,0.05,0.74,0.15c0.23,0.1,0.43,0.24,0.61,0.42c0.18,0.2,0.33,0.42,0.42,0.67c0.2,0.53,0.2,1.11,0,1.64
			c-0.09,0.24-0.24,0.47-0.42,0.65c-0.16,0.19-0.38,0.33-0.61,0.42c-0.23,0.11-0.48,0.16-0.74,0.17c-0.26,0-0.52-0.06-0.76-0.17
			c-0.23-0.1-0.43-0.24-0.61-0.42c-0.18-0.19-0.33-0.41-0.42-0.65C749.59,267.75,749.59,267.17,749.79,266.64L749.79,266.64z"/>
		<path d="M751.13,267.65h0.34l0.76,1.24h0.55l-0.78-1.26c0.2-0.01,0.4-0.09,0.55-0.23c0.07-0.07,0.13-0.15,0.17-0.25
			c0.03-0.1,0.05-0.2,0.03-0.3c0.01-0.12,0-0.25-0.05-0.36c-0.05-0.11-0.12-0.21-0.22-0.29c-0.24-0.15-0.52-0.22-0.79-0.21h-1.07
			v2.9h0.52V267.65z M751.13,266.41h0.69h0.19l0.14,0.13c0.01,0.07,0.01,0.14,0,0.21c0.01,0.08,0.01,0.15,0,0.23l-0.12,0.13h-0.19
			h-0.72V266.41z"/>
		<path d="M705.49,312.03c0.26,0.27,0.58,0.47,0.92,0.61c0.41,0.14,0.84,0.21,1.28,0.21c0.43,0,0.86-0.07,1.28-0.21
			c0.35-0.14,0.66-0.35,0.92-0.61c0.26-0.28,0.45-0.61,0.57-0.97c0.13-0.42,0.19-0.85,0.19-1.28c0-0.43-0.05-0.87-0.19-1.28
			c-0.11-0.36-0.31-0.69-0.56-0.96c-0.26-0.27-0.58-0.48-0.93-0.61c-0.41-0.14-0.84-0.21-1.28-0.21c-0.44,0-0.87,0.07-1.28,0.21
			c-0.35,0.13-0.67,0.34-0.92,0.61c-0.26,0.28-0.45,0.61-0.57,0.97c-0.13,0.41-0.19,0.85-0.19,1.28c0,0.44,0.06,0.87,0.19,1.28
			C705.04,311.42,705.23,311.75,705.49,312.03L705.49,312.03z M706.43,309.07c0.04-0.22,0.12-0.42,0.23-0.61
			c0.11-0.17,0.25-0.31,0.42-0.42c0.19-0.1,0.4-0.15,0.61-0.15c0.21,0,0.42,0.05,0.61,0.15c0.17,0.11,0.31,0.25,0.42,0.42
			c0.11,0.19,0.19,0.39,0.23,0.61c0.02,0.24,0.02,0.48,0,0.71c0.02,0.24,0.02,0.48,0,0.72c-0.04,0.21-0.12,0.42-0.23,0.61
			c-0.11,0.17-0.25,0.31-0.42,0.42c-0.19,0.1-0.4,0.15-0.61,0.15c-0.21,0-0.42-0.05-0.61-0.15c-0.17-0.11-0.31-0.25-0.42-0.42
			c-0.11-0.19-0.19-0.4-0.23-0.61c-0.03-0.24-0.03-0.48,0-0.72C706.4,309.54,706.4,309.3,706.43,309.07L706.43,309.07z"/>
		<path d="M713.48,310.35h2.29v-1.11h-2.29v-1.28h2.39v-1.14h-3.97v5.93h1.58V310.35z"/>
		<path d="M718.63,310.35h2.29v-1.11h-2.29v-1.28H721v-1.14h-3.95v5.93h1.58V310.35z"/>
		<path d="M723.88,306.82h-1.58v5.93h1.58V306.82z"/>
		<path d="M726.38,312.16c0.32,0.25,0.69,0.43,1.09,0.53c0.39,0.11,0.79,0.16,1.19,0.17c0.34,0.04,0.67,0.04,1.01,0l0.74-0.17v-1.22
			c-0.23,0.09-0.47,0.16-0.72,0.21c-0.25,0.03-0.5,0.03-0.76,0c-0.27,0-0.54-0.04-0.79-0.13c-0.24-0.07-0.45-0.2-0.63-0.38
			c-0.18-0.16-0.32-0.36-0.4-0.59c-0.11-0.24-0.17-0.51-0.17-0.78c0-0.26,0.05-0.52,0.15-0.76c0.08-0.23,0.21-0.44,0.38-0.61
			c0.15-0.18,0.35-0.32,0.57-0.4c0.24-0.1,0.49-0.15,0.76-0.15c0.26-0.03,0.53-0.03,0.8,0c0.27,0.07,0.52,0.18,0.76,0.32l0.13-1.28
			c-0.28-0.09-0.57-0.16-0.86-0.21c-0.3-0.03-0.6-0.03-0.9,0c-0.45,0-0.91,0.06-1.34,0.19c-0.39,0.12-0.76,0.32-1.07,0.59
			c-0.32,0.26-0.56,0.59-0.72,0.97c-0.18,0.43-0.26,0.88-0.25,1.35c-0.01,0.5,0.09,0.99,0.32,1.43
			C725.81,311.59,726.06,311.91,726.38,312.16L726.38,312.16z"/>
		<path d="M733.22,306.82h-1.58v5.93h1.58V306.82z"/>
		<path d="M736.39,311.48h2.23l0.44,1.26h1.72l-2.27-5.93h-1.94l-2.25,5.93h1.6L736.39,311.48z M737.53,308.04l0.69,2.31h-1.47
			L737.53,308.04z"/>
		<path d="M745.84,311.57h-2.44v-4.75h-1.58v5.93h4.01V311.57z"/>
		<path d="M708.74,321.62h-2.43v-4.75h-1.58v5.93h4.01V321.62z"/>
		<path d="M711.51,316.87h-1.58v5.93h1.58V316.87z"/>
		<path d="M713.87,317.54c-0.32,0.26-0.56,0.59-0.72,0.97c-0.18,0.43-0.26,0.88-0.25,1.35c-0.01,0.49,0.09,0.98,0.29,1.43
			c0.2,0.36,0.47,0.68,0.8,0.93c0.33,0.25,0.71,0.43,1.11,0.53c0.4,0.15,0.83,0.24,1.26,0.27c0.34,0.03,0.68,0.03,1.01,0l0.73-0.17
			v-1.24c-0.23,0.1-0.47,0.18-0.71,0.23c-0.26,0.03-0.52,0.03-0.78,0c-0.27,0-0.54-0.04-0.8-0.13c-0.23-0.08-0.43-0.21-0.61-0.38
			c-0.19-0.16-0.33-0.36-0.42-0.59c-0.1-0.25-0.15-0.51-0.15-0.78c0-0.26,0.04-0.51,0.12-0.76c0.1-0.22,0.23-0.43,0.38-0.61
			c0.16-0.18,0.37-0.31,0.59-0.4c0.24-0.1,0.49-0.15,0.76-0.15c0.27-0.03,0.53-0.03,0.8,0c0.26,0.07,0.52,0.17,0.76,0.32l0.12-1.28
			c-0.28-0.09-0.57-0.16-0.86-0.21c-0.3-0.03-0.6-0.03-0.9,0c-0.45,0-0.91,0.06-1.34,0.19
			C714.63,317.13,714.22,317.29,713.87,317.54L713.87,317.54z"/>
		<path d="M720.73,320.34h2.43v-1.11h-2.43v-1.24h2.58v-1.11h-4.16v5.93h4.26v-1.11h-2.69V320.34z"/>
		<path d="M726.21,318.74h0.02l2.08,4.06h1.95v-5.93h-1.45l0.02,4.02l-2.01-4.02h-1.99v5.93h1.45L726.21,318.74z"/>
		<path d="M732.36,319.96c0.2,0.14,0.43,0.24,0.67,0.29l0.67,0.23c0.18,0.05,0.35,0.13,0.5,0.23c0.07,0.05,0.12,0.12,0.16,0.19
			c0.04,0.08,0.05,0.16,0.05,0.25c0.03,0.09,0.03,0.19,0,0.27c-0.05,0.08-0.12,0.15-0.21,0.19h-0.32h-0.36c-0.3,0.03-0.6,0.03-0.9,0
			c-0.26-0.07-0.5-0.17-0.74-0.29l-0.13,1.32c0.29,0.09,0.58,0.15,0.88,0.19h0.88c0.32,0,0.65-0.04,0.96-0.11
			c0.29-0.04,0.57-0.14,0.82-0.29c0.25-0.15,0.45-0.36,0.59-0.61c0.16-0.29,0.24-0.62,0.23-0.95c0.02-0.3-0.05-0.6-0.21-0.86
			c-0.13-0.2-0.32-0.38-0.52-0.5c-0.21-0.14-0.43-0.24-0.67-0.32l-0.67-0.19c-0.18-0.05-0.36-0.12-0.52-0.21
			c-0.06-0.04-0.11-0.1-0.15-0.16c-0.03-0.07-0.05-0.14-0.04-0.21c0-0.05,0-0.11,0.02-0.16c0.01-0.05,0.05-0.1,0.09-0.13
			c0.07-0.08,0.17-0.14,0.27-0.17c0.11-0.02,0.22-0.02,0.34,0h0.34c0.22-0.02,0.45-0.02,0.67,0c0.23,0.04,0.44,0.11,0.65,0.21v-1.22
			c-0.23-0.08-0.46-0.13-0.69-0.17c-0.28-0.02-0.55-0.02-0.82,0c-0.3-0.02-0.6-0.02-0.9,0c-0.29,0.06-0.57,0.16-0.84,0.29
			c-0.25,0.14-0.45,0.33-0.61,0.57c-0.16,0.27-0.24,0.57-0.23,0.88c-0.02,0.3,0.05,0.6,0.21,0.86
			C731.96,319.62,732.15,319.81,732.36,319.96L732.36,319.96z"/>
		<path d="M741.54,317.98v-1.11h-4.18v5.93h4.26v-1.11h-2.69v-1.35h2.45v-1.11h-2.45v-1.24H741.54z"/>
		<path d="M743.01,316.87v5.93h2.1c0.46,0,0.93-0.06,1.38-0.17c0.4-0.09,0.78-0.26,1.12-0.5c0.32-0.24,0.57-0.56,0.74-0.92
			c0.18-0.44,0.26-0.91,0.25-1.39c0.01-0.49-0.07-0.98-0.25-1.43c-0.16-0.36-0.4-0.67-0.72-0.9c-0.33-0.24-0.71-0.4-1.11-0.46
			c-0.46-0.11-0.93-0.15-1.41-0.15H743.01z M746.55,318.49c0.32,0.38,0.49,0.85,0.49,1.35c0,0.49-0.17,0.97-0.49,1.35
			c-0.38,0.32-0.87,0.48-1.36,0.44h-0.61v-3.57h0.61C745.69,318.01,746.17,318.17,746.55,318.49z"/>
		<path d="M706.31,330.76h0.61c0.62,0.04,1.22-0.14,1.72-0.5c0.21-0.16,0.37-0.38,0.48-0.62c0.11-0.24,0.16-0.5,0.15-0.77
			c0.02-0.28-0.02-0.56-0.14-0.82c-0.11-0.26-0.29-0.48-0.51-0.65c-0.63-0.38-1.37-0.55-2.1-0.48h-1.87v5.93h1.58L706.31,330.76z
			 M706.31,328.03h0.4h0.38c0.11,0.02,0.22,0.06,0.32,0.13c0.09,0.06,0.16,0.15,0.21,0.25c0.02,0.13,0.02,0.25,0,0.38
			c0.03,0.13,0.03,0.27,0,0.4c-0.04,0.1-0.11,0.19-0.21,0.25c-0.09,0.07-0.2,0.11-0.32,0.13h-0.38h-0.4V328.03z"/>
		<path d="M714.6,330.74c-0.03-0.13-0.08-0.26-0.14-0.38c-0.05-0.1-0.11-0.19-0.19-0.27c-0.09-0.08-0.2-0.14-0.31-0.17
			c0.34-0.05,0.65-0.23,0.86-0.5c0.19-0.29,0.29-0.64,0.27-0.99c0.01-0.23-0.04-0.45-0.14-0.65c-0.09-0.19-0.23-0.36-0.4-0.48
			c-0.19-0.12-0.4-0.21-0.61-0.27c-0.25-0.02-0.5-0.02-0.76,0h-2.81v5.93h1.6v-2.46h0.32c0.12-0.02,0.25-0.02,0.38,0
			c0.11,0.04,0.22,0.12,0.3,0.21c0.08,0.12,0.16,0.24,0.21,0.38c0.09,0.2,0.17,0.42,0.23,0.63l0.34,1.07h1.66l-0.59-1.62
			C714.72,331.04,714.66,330.89,714.6,330.74z M713.4,329.08c-0.07,0.09-0.17,0.16-0.27,0.21h-0.38h-0.79v-1.35h0.4h0.44
			c0.12-0.02,0.24-0.02,0.36,0c0.11,0.04,0.2,0.12,0.27,0.21c0.03,0.1,0.03,0.21,0,0.32c0.05,0.1,0.07,0.2,0.07,0.31
			C713.48,328.89,713.46,328.99,713.4,329.08L713.4,329.08z"/>
		<path d="M721.44,327.63c-0.27-0.26-0.58-0.47-0.92-0.61c-0.41-0.14-0.85-0.21-1.28-0.21c-0.43,0-0.87,0.07-1.28,0.21
			c-0.36,0.13-0.68,0.34-0.95,0.61c-0.25,0.28-0.44,0.61-0.56,0.97c-0.13,0.41-0.2,0.85-0.19,1.28c0,0.43,0.06,0.85,0.19,1.26
			c0.12,0.36,0.32,0.69,0.56,0.97c0.27,0.28,0.59,0.5,0.95,0.63c0.82,0.28,1.71,0.28,2.54,0c0.36-0.13,0.68-0.35,0.95-0.63
			c0.26-0.27,0.46-0.6,0.56-0.97c0.13-0.41,0.2-0.83,0.19-1.26c0-0.44-0.06-0.87-0.19-1.28
			C721.89,328.24,721.7,327.91,721.44,327.63L721.44,327.63z M720.56,330.6c-0.05,0.22-0.13,0.42-0.25,0.61
			c-0.09,0.17-0.23,0.31-0.4,0.4c-0.18,0.11-0.4,0.17-0.61,0.17c-0.21,0-0.4-0.05-0.59-0.15c-0.18-0.1-0.33-0.24-0.44-0.41
			c-0.11-0.19-0.19-0.39-0.23-0.61c-0.03-0.24-0.03-0.48,0-0.71c-0.03-0.24-0.03-0.49,0-0.74c0.04-0.21,0.12-0.41,0.23-0.59
			c0.1-0.17,0.25-0.31,0.42-0.42c0.18-0.11,0.4-0.16,0.61-0.15c0.21-0.01,0.42,0.04,0.61,0.15c0.16,0.11,0.3,0.25,0.4,0.42
			c0.12,0.18,0.2,0.38,0.25,0.59c0.02,0.24,0.02,0.49,0,0.74C720.58,330.12,720.58,330.36,720.56,330.6z"/>
		<path d="M728.18,327.53c-0.33-0.23-0.71-0.39-1.11-0.46c-0.46-0.11-0.93-0.15-1.41-0.15h-2.1v5.93h2.1c0.47,0,0.93-0.06,1.39-0.17
			c0.4-0.09,0.78-0.26,1.11-0.5c0.32-0.24,0.57-0.56,0.74-0.92c0.18-0.44,0.27-0.91,0.25-1.39c0.01-0.49-0.07-0.98-0.25-1.43
			C728.74,328.07,728.49,327.76,728.18,327.53z M727.05,331.23c-0.39,0.32-0.87,0.48-1.37,0.44h-0.61v-3.57h0.61
			c0.49-0.03,0.98,0.13,1.37,0.44c0.17,0.18,0.3,0.39,0.38,0.62c0.08,0.23,0.12,0.48,0.1,0.72c0.01,0.25-0.02,0.49-0.1,0.72
			C727.35,330.84,727.22,331.05,727.05,331.23L727.05,331.23z"/>
		<path d="M731.06,332.38c0.24,0.2,0.52,0.34,0.82,0.42c0.35,0.1,0.71,0.14,1.07,0.15c0.35,0,0.71-0.05,1.05-0.15
			c0.3-0.08,0.58-0.22,0.82-0.42c0.23-0.2,0.4-0.46,0.52-0.74c0.13-0.33,0.2-0.69,0.19-1.05v-3.68h-1.58v3.41
			c0.01,0.19,0.01,0.38,0,0.57c-0.03,0.16-0.09,0.32-0.17,0.46c-0.06,0.13-0.17,0.23-0.3,0.29c-0.15,0.09-0.33,0.13-0.5,0.13
			c-0.18,0.01-0.35-0.04-0.5-0.13c-0.13-0.07-0.24-0.17-0.32-0.29c-0.07-0.15-0.12-0.3-0.17-0.46c-0.01-0.19-0.01-0.38,0-0.57v-3.41
			h-1.58v3.68c0,0.36,0.06,0.72,0.19,1.05C730.71,331.92,730.86,332.17,731.06,332.38L731.06,332.38z"/>
		<path d="M741.22,331.69c-0.26,0.03-0.52,0.03-0.78,0c-0.27,0-0.54-0.04-0.8-0.13c-0.24-0.07-0.45-0.2-0.63-0.38
			c-0.17-0.17-0.31-0.37-0.4-0.59c-0.11-0.25-0.16-0.51-0.15-0.78c0-0.26,0.04-0.51,0.12-0.76c0.08-0.23,0.21-0.44,0.38-0.61
			c0.16-0.18,0.36-0.32,0.59-0.4c0.24-0.11,0.5-0.16,0.76-0.15c0.26,0,0.52,0.04,0.78,0.1c0.27,0.07,0.52,0.18,0.76,0.32l0.12-1.28
			l-0.86-0.23c-0.3-0.02-0.59-0.02-0.88,0c-0.46,0-0.92,0.06-1.36,0.19c-0.39,0.13-0.76,0.33-1.07,0.59
			c-0.31,0.26-0.56,0.59-0.72,0.97c-0.17,0.43-0.26,0.88-0.25,1.35c-0.01,0.5,0.09,0.99,0.32,1.43c0.2,0.36,0.47,0.68,0.8,0.92
			c0.32,0.25,0.69,0.43,1.09,0.53c0.39,0.11,0.79,0.16,1.19,0.17c0.34,0.03,0.67,0.03,1.01,0l0.76-0.17v-1.24L741.22,331.69z"/>
		<path d="M742.69,328.09h1.47v4.75h1.58v-4.75h1.45v-1.18h-4.49V328.09z"/>
		<path d="M689.07,250.81v93.94h75.04v-93.94H689.07z M763.18,344.03h-73.49v-45.86h73.49V344.03z M763.18,297.48h-73.49v-45.86
			h73.49V297.48z"/>
		<path d="M151.56,373.47c41.74,0,75.59-33.89,75.59-75.69c0-41.8-33.84-75.69-75.59-75.69c-41.75,0-75.59,33.89-75.59,75.69
			C75.98,339.58,109.82,373.47,151.56,373.47z"/>
		<path class="st1" d="M201.28,309.97h1.91v0.42h-0.76v1.64h-0.48v-1.64h-0.76L201.28,309.97z M111.13,317.56h-4.37
			c-0.97,0-1.45-0.53-1.45-1.6v-1.72c-0.02-0.44,0.12-0.88,0.4-1.22c0.12-0.16,0.28-0.28,0.47-0.37c0.18-0.08,0.38-0.12,0.58-0.12
			h3.42c0.36-0.02,0.72,0.09,1.02,0.31s0.5,0.53,0.58,0.89l0.48,1.66h3.13v-1.85c0.02-0.57-0.08-1.13-0.3-1.66
			c-0.21-0.53-0.53-1-0.94-1.39c-0.4-0.39-0.87-0.7-1.39-0.9c-0.52-0.21-1.07-0.31-1.63-0.29h-5.06c-0.57-0.01-1.14,0.09-1.67,0.31
			c-0.53,0.22-1.01,0.54-1.41,0.95c-0.4,0.4-0.72,0.87-0.94,1.4c-0.22,0.52-0.32,1.09-0.32,1.65v2.94
			c-0.02,0.58,0.08,1.15,0.29,1.69c0.21,0.54,0.53,1.03,0.94,1.43c0.41,0.41,0.9,0.73,1.43,0.94c0.54,0.21,1.11,0.31,1.69,0.29h4.35
			c0.97,0,1.45,0.57,1.45,1.66v2.23c0.02,0.43-0.12,0.86-0.38,1.2c-0.13,0.16-0.29,0.29-0.48,0.37s-0.39,0.12-0.59,0.11h-3.46
			c-0.37,0.03-0.73-0.07-1.03-0.28c-0.3-0.22-0.51-0.53-0.59-0.89l-0.46-1.87h-3.15v2.1c-0.01,0.57,0.09,1.13,0.3,1.66
			c0.21,0.53,0.52,1.01,0.92,1.41c0.4,0.4,0.88,0.71,1.41,0.92c0.53,0.21,1.09,0.31,1.66,0.3h5.12c0.57,0.01,1.14-0.1,1.66-0.32
			c0.53-0.22,1-0.55,1.4-0.96c0.4-0.4,0.72-0.88,0.93-1.41c0.21-0.53,0.32-1.09,0.3-1.66v-3.55c-0.01-1.15-0.46-2.24-1.26-3.06
			C113.36,318.04,112.27,317.58,111.13,317.56L111.13,317.56z M132,310.56c0.4,0.39,0.72,0.87,0.94,1.39
			c0.22,0.52,0.33,1.08,0.32,1.64v4.21c0.01,0.57-0.1,1.14-0.31,1.66c-0.22,0.53-0.54,1.01-0.95,1.4c-0.41,0.41-0.89,0.73-1.43,0.94
			c-0.53,0.22-1.1,0.32-1.68,0.32h-5.63v7.61h-3.59V309.3h9.22c0.58-0.01,1.15,0.1,1.68,0.32C131.1,309.83,131.59,310.15,132,310.56
			L132,310.56z M129.64,314.26c0.01-0.44-0.14-0.87-0.42-1.2c-0.12-0.15-0.28-0.27-0.46-0.35c-0.18-0.08-0.37-0.12-0.57-0.11h-4.93
			v6.31h4.93c0.2,0.01,0.39-0.03,0.57-0.11c0.18-0.08,0.34-0.2,0.46-0.35c0.28-0.34,0.43-0.78,0.42-1.22V314.26z M165.57,321.28
			l3.57,8.41h-3.82l-3.25-7.97h-3.51v8.01h-3.61V309.3h9.03c0.57-0.01,1.14,0.1,1.66,0.32c0.53,0.22,1,0.54,1.4,0.95
			c0.41,0.39,0.74,0.86,0.97,1.38c0.23,0.52,0.35,1.08,0.35,1.65v3.57c0.01,0.9-0.26,1.78-0.76,2.52
			C167.08,320.39,166.38,320.94,165.57,321.28L165.57,321.28z M164.69,314.26c0.03-0.43-0.11-0.86-0.38-1.2
			c-0.12-0.15-0.28-0.27-0.46-0.35c-0.18-0.08-0.37-0.12-0.57-0.11h-4.72v5.85h4.72c0.2,0,0.39-0.04,0.57-0.12
			c0.18-0.08,0.34-0.2,0.46-0.35c0.27-0.34,0.4-0.77,0.38-1.2V314.26z M170.59,312.6h5.19v17.14h3.63V312.6h5.23v-3.3h-14.05V312.6z
			 M196.64,317.56h-4.35c-0.97,0-1.45-0.53-1.45-1.6v-1.72c-0.02-0.44,0.12-0.88,0.4-1.22c0.13-0.15,0.29-0.28,0.47-0.36
			c0.18-0.08,0.38-0.12,0.58-0.12h3.36c0.37-0.02,0.73,0.08,1.02,0.3c0.29,0.22,0.5,0.54,0.58,0.89l0.48,1.66h3.13v-1.85
			c0.01-0.57-0.1-1.13-0.31-1.65c-0.21-0.52-0.53-1-0.93-1.4c-0.4-0.39-0.88-0.7-1.4-0.91c-0.52-0.21-1.08-0.3-1.64-0.29h-5.04
			c-1.13,0.02-2.22,0.48-3.02,1.28c-0.8,0.81-1.25,1.89-1.27,3.03v2.94c-0.01,0.58,0.1,1.15,0.32,1.68
			c0.22,0.53,0.55,1.01,0.96,1.41c0.4,0.41,0.88,0.73,1.4,0.95c0.53,0.22,1.09,0.32,1.66,0.32h4.35c0.99,0,1.45,0.57,1.45,1.66v2.23
			c0.02,0.43-0.12,0.86-0.38,1.2c-0.13,0.16-0.29,0.29-0.48,0.37c-0.19,0.08-0.39,0.12-0.59,0.11h-3.46
			c-0.37,0.03-0.73-0.07-1.03-0.28s-0.51-0.53-0.59-0.89l-0.46-1.87h-3.15v2.1c-0.01,0.57,0.09,1.13,0.31,1.66s0.53,1.01,0.93,1.41
			c0.8,0.75,1.86,1.16,2.96,1.14h5.1c0.57,0.01,1.15-0.1,1.68-0.32c0.53-0.22,1.01-0.55,1.41-0.96c0.41-0.4,0.73-0.88,0.95-1.41
			c0.22-0.53,0.32-1.09,0.31-1.66v-3.47c-0.03-1.15-0.49-2.24-1.3-3.05c-0.81-0.81-1.9-1.28-3.04-1.3H196.64z M205.55,309.97
			l-0.78,1.18l-0.71-1.18h-0.31v1.98h0.31v-1.22c0,0,0-0.15,0-0.23c0-0.08,0,0.15,0.13,0.21l0.65,0.99l0.63-0.97c0,0,0-0.15,0-0.23
			v1.45h0.36v-1.98H205.55z M149.28,310.54c0.41,0.4,0.73,0.87,0.95,1.39c0.22,0.52,0.33,1.09,0.33,1.66v11.75
			c0,0.58-0.11,1.15-0.33,1.68c-0.22,0.53-0.54,1.02-0.95,1.43c-0.41,0.41-0.89,0.73-1.42,0.95c-0.53,0.22-1.1,0.33-1.68,0.33h-4.87
			c-0.57,0.01-1.15-0.1-1.68-0.32c-0.53-0.22-1.01-0.55-1.41-0.96c-0.43-0.4-0.78-0.88-1.01-1.41c-0.24-0.54-0.36-1.11-0.35-1.7
			v-11.75c0.04-1.13,0.52-2.2,1.33-2.99c0.82-0.79,1.9-1.22,3.04-1.22h4.87c0.58-0.04,1.16,0.05,1.71,0.25
			C148.36,309.83,148.86,310.14,149.28,310.54L149.28,310.54z M146.95,314.26c0.02-0.44-0.13-0.87-0.42-1.2
			c-0.12-0.15-0.28-0.27-0.46-0.35c-0.18-0.08-0.37-0.12-0.57-0.11h-3.46c-0.2-0.01-0.4,0.03-0.59,0.11
			c-0.19,0.08-0.35,0.2-0.48,0.35c-0.26,0.34-0.4,0.77-0.38,1.2v10.51c-0.01,0.42,0.12,0.84,0.38,1.18
			c0.13,0.16,0.29,0.29,0.48,0.38s0.39,0.13,0.6,0.13h3.46c0.2,0,0.4-0.04,0.58-0.13c0.18-0.09,0.33-0.22,0.45-0.38
			c0.29-0.32,0.44-0.75,0.42-1.18V314.26z M162.17,257.11h-38.84l-5.94,9.46h38.82L162.17,257.11z M176.86,285.48h-5.8l-5.98,9.48
			h17.78l5.96,9.46h11.34l-30.05-47.64l-24.17,38.2h-26.41l6.07-9.48h16.4l5.98-9.46h-36.6l-6.03,9.46h8.78l-11.97,18.92h49.38
			l18.56-29.77L176.86,285.48z"/>
		<path d="M255.98,250.76h70l-3.55,20.56h-44.09l-3.02,17.26h35.53l-3.55,20.54H271.6l-6.3,35.57h-25.91L255.98,250.76z"/>
		<path d="M335.05,250.76h25.93l-16.59,93.94h-25.93L335.05,250.76z"/>
		<path d="M370.05,250.76h70l-3.55,20.56h-44.09l-3.02,17.26h35.53l-3.55,20.54h-35.69l-6.3,35.57h-25.91L370.05,250.76z"/>
		<path d="M461.89,250.64h29.08l15.14,94.07h-25.8l-2.1-16.46h-32.5l-7.89,16.46H412.8L461.89,250.64z M475.7,308.6l-4.35-33.85
			h-0.52l-15.79,33.85H475.7z"/>
		<path d="M522.88,330.3l31.49-30.02c6.93-6.69,17.99-16.82,17.99-25.63c0-4.94-3.71-7.34-8.25-7.34c-8.4,0-10.5,7.09-11.46,13.75
			h-23.64c0.13-0.4,0.8-4.81,0.92-5.21c3.59-19.22,19.99-27.61,38.91-27.61c14.93,0,28.66,5.99,28.66,22.81
			c0,18.67-19.07,33.09-31.73,44.43l-8.99,8.01l-0.13,0.67h32.9l-3.59,20.54h-65.63L522.88,330.3z"/>
		<path d="M596.31,324.84c0.01-2.97,0.36-5.92,1.05-8.81h23.46c-0.25,1.32-0.42,2.66-0.53,3.99c0,5.47,6,6.81,10.39,6.81
			c1.57-0.04,3.11-0.39,4.53-1.03s2.72-1.55,3.79-2.69c1.08-1.14,1.92-2.47,2.48-3.94c0.56-1.46,0.83-3.02,0.79-4.59
			c0-6.31-6.3-8.94-11.86-8.94h-4.51l2.92-16.95h5.33c7.05,0.4,13.86-3.62,13.86-12.61c0-5.07-3.34-7.74-8.13-7.74
			c-7.6,0-10.92,3.34-12.13,10.28h-22.91l0.52-3.07c3.19-18.92,19.87-27.63,37.98-27.63c13.98,0,29.06,6.31,29.06,22.69
			c0,11.73-6.13,21.74-17.59,25.23l-0.15,0.67c3.93,0.86,7.43,3.06,9.91,6.23c2.48,3.16,3.79,7.09,3.69,11.12
			c0,22.16-23.45,32.82-41.72,32.42C612.28,346.13,596.31,341.93,596.31,324.84z"/>
	</g>
</g>
</svg>
